<svg xmlns="http://www.w3.org/2000/svg" viewBox="0 0 70 70.37"><defs><style>.cls-1{fill:#ffc900}.cls-2{fill:#846400}.cls-3{font-family:HiraKakuStd-W8-83pv-RKSJ-H,&apos;Hiragino Kaku Gothic Std&apos;;font-size:11px}</style></defs><g id="box"><rect width="70" height="70" class="cls-1" rx="7.69" ry="7.69"/></g><g id="Churchill"><path d="m18.01,50.93c2.82-3.16,5.63-6.32,8.45-9.47.55-.61,1.12-1.21,1.73-1.76,1.32-1.19,1.24-2.15-.32-3.04-1.35-.77-2.45-1.67-2.38-3.51.05-1.33-.96-1.24-1.91-1.02-2.4.57-4.8,1.18-7.21,1.69-.8.17-1.66.1-2.49.13-.08-.24-.16-.49-.24-.73.69-.37,1.34-.86,2.08-1.07,2.56-.76,5.16-1.41,7.73-2.12,1.71-.47,1.74-.83.52-2.16-.31-.34-.49-1.36-.27-1.55,1.77-1.54,1.43-3.61,1.58-5.83-.99-.18-2.05-.31-3.08-.57-.53-.14-1.01-.5-1.51-.76.5-.35,1.01-1.02,1.51-1.01,3.82.06,5.12-2.33,5.97-5.55.99-3.72,2.49-4.89,6.29-4.29,3.27.51,6.43,1.76,9.61,2.79,1.73.56,2.32,1.99,2.28,3.73-.04,1.71.04,3.44-.13,5.14-.16,1.7.47,2.7,2.04,3.29.53.2.95.69,1.42,1.05l-.08.66c-1.16.08-2.33.16-3.64.25.27,1.6-.66,2.32-2.31,2.84-3.34,1.05-6.05,3.17-8.38,5.77-.24.27-.4.61-.32,1.27.95-.6,1.85-1.28,2.85-1.78,2.32-1.17,4.67-2.29,7.03-3.38,2.14-.99,3.96.3,3.99,2.69,0,.91.18,1.84.4,2.73,1.03,4.26,2.14,8.5,3.11,12.77.14.62-.26,1.37-.48,2.36-1.79-1.34-3.08-2.48-4.53-3.36-5.98-3.65-12.06-3.03-18.05-.07-2.88,1.43-5.61,3.18-8.46,4.66-.66.34-1.57.21-2.36.29-.15-.36-.29-.71-.44-1.07Z" class="cls-2"/></g><g id="Caption"><text class="cls-3" transform="translate(5.52 64.34)"><tspan x="0" y="0">Churchill</tspan></text></g></svg>