<svg xmlns="http://www.w3.org/2000/svg" id="Layer_2" data-name="Layer 2" viewBox="0 0 101.19 101.19"><defs><style>.cls-1{fill:#fff}</style></defs><g id="Layer_2-2" data-name="Layer 2"><g id="POt5aR"><g><path d="m101.19,101.19H0V0h101.19v101.19Zm-79.96-10.23c.27.66.54,1.31.81,1.97,1.47-.16,3.15.1,4.37-.54,5.28-2.75,10.31-5.98,15.64-8.61,11.08-5.48,22.31-6.62,33.36.13,2.67,1.63,5.06,3.73,8.37,6.22.4-1.83,1.16-3.22.89-4.37-1.81-7.89-3.85-15.73-5.75-23.61-.4-1.65-.72-3.35-.74-5.04-.05-4.42-3.41-6.8-7.37-4.98-4.37,2.01-8.71,4.07-13,6.24-1.84.93-3.52,2.18-5.27,3.29-.16-1.21.14-1.84.58-2.34,4.31-4.79,9.32-8.71,15.49-10.66,3.04-.96,4.77-2.31,4.27-5.26,2.44-.17,4.58-.32,6.73-.47l.14-1.22c-.87-.66-1.65-1.57-2.63-1.93-2.9-1.08-4.07-2.94-3.77-6.08.3-3.14.17-6.33.24-9.5.07-3.21-1.03-5.85-4.22-6.88-5.87-1.9-11.71-4.21-17.76-5.15-7.03-1.1-9.8,1.05-11.63,7.93-1.58,5.94-3.97,10.36-11.04,10.26-.92-.01-1.86,1.22-2.8,1.87.92.48,1.8,1.16,2.78,1.41,1.89.48,3.85.72,5.68,1.05-.27,4.1.36,7.92-2.92,10.77-.4.35-.08,2.24.5,2.87,2.25,2.46,2.19,3.11-.96,3.99-4.76,1.32-9.56,2.52-14.29,3.92-1.36.4-2.56,1.31-3.84,1.99.15.45.29.9.44,1.36,1.54-.07,3.12.07,4.61-.25,4.47-.94,8.89-2.06,13.33-3.12,1.76-.42,3.62-.58,3.53,1.88-.13,3.39,1.91,5.06,4.4,6.48,2.89,1.64,3.05,3.43.6,5.62-1.13,1.01-2.18,2.12-3.19,3.25-5.22,5.83-10.42,11.67-15.62,17.51Z" class="cls-1"/><path d="m21.23,90.95c5.2-5.84,10.4-11.69,15.62-17.51,1.01-1.13,2.06-2.24,3.19-3.25,2.45-2.19,2.29-3.98-.6-5.62-2.5-1.41-4.53-3.09-4.4-6.48.09-2.46-1.77-2.3-3.53-1.88-4.44,1.06-8.87,2.18-13.33,3.12-1.49.31-3.07.18-4.61.25-.15-.45-.29-.9-.44-1.36,1.27-.68,2.48-1.59,3.84-1.99,4.74-1.4,9.53-2.6,14.29-3.92,3.15-.88,3.22-1.53.96-3.99-.58-.63-.9-2.52-.5-2.87,3.27-2.85,2.64-6.67,2.92-10.77-1.83-.32-3.79-.57-5.68-1.05-.98-.25-1.86-.93-2.78-1.41.93-.66,1.87-1.89,2.8-1.87,7.06.11,9.46-4.32,11.04-10.26,1.83-6.88,4.6-9.03,11.63-7.93,6.04.94,11.89,3.25,17.76,5.15,3.19,1.04,4.29,3.68,4.22,6.88-.07,3.17.06,6.35-.24,9.5-.3,3.14.87,4.99,3.77,6.08.98.37,1.76,1.27,2.63,1.93l-.14,1.22c-2.15.15-4.3.3-6.73.47.5,2.95-1.22,4.3-4.27,5.26-6.17,1.95-11.18,5.87-15.49,10.66-.45.5-.74,1.13-.58,2.34,1.75-1.11,3.43-2.36,5.27-3.29,4.29-2.17,8.63-4.23,13-6.24,3.96-1.82,7.33.55,7.37,4.98.02,1.68.34,3.39.74,5.04,1.9,7.87,3.95,15.71,5.75,23.61.26,1.15-.49,2.54-.89,4.37-3.31-2.48-5.7-4.59-8.37-6.22-11.06-6.74-22.28-5.61-33.36-.13-5.33,2.64-10.36,5.87-15.64,8.61-1.22.63-2.9.38-4.37.54-.27-.66-.54-1.31-.81-1.97Z" class="cls-1"/></g></g></g></svg>